<svg width="400" height="400" viewBox="0 0 400 400" fill="none" xmlns="http://www.w3.org/2000/svg">
<g clip-path="url(#clip0_498_2)">
<path d="M200.467 8L192.131 33.6543L204.958 37.8221L200.467 8Z" fill="black"/>
<path d="M200.467 8L208.802 33.6543L195.975 37.8221L200.467 8Z" fill="black"/>
<path d="M226.119 26.6387H199.145V40.1259L226.119 26.6387Z" fill="black"/>
<path d="M226.119 26.6387L204.296 42.4939L196.369 31.5825L226.119 26.6387Z" fill="black"/>
<path d="M216.322 56.7988L207.987 31.1445L195.16 35.3123L216.322 56.7988Z" fill="black"/>
<path d="M216.322 56.7988L194.499 40.9436L202.427 30.0322L216.322 56.7988Z" fill="black"/>
<path d="M184.613 56.7969L206.436 40.9416L198.509 30.0302L184.613 56.7969Z" fill="black"/>
<path d="M184.613 56.7969L192.949 31.1426L205.776 35.3104L184.613 56.7969Z" fill="black"/>
<path d="M174.811 26.6387L196.633 42.4939L204.561 31.5825L174.811 26.6387Z" fill="black"/>
<path d="M174.811 26.6387H201.785V40.1259L174.811 26.6387Z" fill="black"/>
<path d="M145.199 328.65H118.225V342.138L145.199 328.65Z" fill="black"/>
<path d="M145.199 328.65L123.376 344.506L115.449 333.594L145.199 328.65Z" fill="black"/>
<path d="M135.4 358.809L127.065 333.154L114.238 337.322L135.4 358.809Z" fill="black"/>
<path d="M135.4 358.809L113.578 342.953L121.505 332.042L135.4 358.809Z" fill="black"/>
<path d="M103.689 358.807L125.512 342.951L117.585 332.04L103.689 358.807Z" fill="black"/>
<path d="M103.689 358.807L112.025 333.152L124.852 337.32L103.689 358.807Z" fill="black"/>
<path d="M93.8887 328.649L115.712 344.505L123.639 333.593L93.8887 328.649Z" fill="black"/>
<path d="M93.8887 328.649H120.863V342.137L93.8887 328.649Z" fill="black"/>
<path d="M119.547 310.011L111.211 335.665L124.038 339.833L119.547 310.011Z" fill="black"/>
<path d="M119.547 310.011L127.882 335.665L115.055 339.833L119.547 310.011Z" fill="black"/>
<path d="M85.959 269.409H58.9845V282.896L85.959 269.409Z" fill="black"/>
<path d="M85.959 269.409L64.1361 285.264L56.2085 274.353L85.959 269.409Z" fill="black"/>
<path d="M76.1602 299.566L67.8246 273.912L54.9974 278.08L76.1602 299.566Z" fill="black"/>
<path d="M76.1602 299.566L54.3373 283.711L62.2649 272.8L76.1602 299.566Z" fill="black"/>
<path d="M44.4492 299.565L66.2721 283.71L58.3445 272.799L44.4492 299.565Z" fill="black"/>
<path d="M44.4492 299.565L52.7848 273.911L65.612 278.079L44.4492 299.565Z" fill="black"/>
<path d="M34.6484 269.408L56.4713 285.263L64.3989 274.352L34.6484 269.408Z" fill="black"/>
<path d="M34.6484 269.408H61.623V282.895L34.6484 269.408Z" fill="black"/>
<path d="M60.3066 250.77L51.9711 276.424L64.7982 280.592L60.3066 250.77Z" fill="black"/>
<path d="M60.3066 250.77L68.6422 276.424L55.8151 280.592L60.3066 250.77Z" fill="black"/>
<path d="M362.316 169.848L353.981 195.502L366.808 199.67L362.316 169.848Z" fill="black"/>
<path d="M362.316 169.848L370.652 195.502L357.825 199.67L362.316 169.848Z" fill="black"/>
<path d="M387.969 188.485H360.994V201.973L387.969 188.485Z" fill="black"/>
<path d="M387.969 188.485L366.146 204.341L358.218 193.429L387.969 188.485Z" fill="black"/>
<path d="M378.172 218.646L369.836 192.991L357.009 197.159L378.172 218.646Z" fill="black"/>
<path d="M378.172 218.646L356.349 202.79L364.277 191.879L378.172 218.646Z" fill="black"/>
<path d="M346.463 218.644L368.286 202.788L360.358 191.877L346.463 218.644Z" fill="black"/>
<path d="M346.463 218.644L354.798 192.989L367.626 197.157L346.463 218.644Z" fill="black"/>
<path d="M336.662 188.486L358.485 204.342L366.413 193.43L336.662 188.486Z" fill="black"/>
<path d="M336.662 188.486H363.637V201.974L336.662 188.486Z" fill="black"/>
<path d="M76.1602 137.722L67.8246 112.067L54.9974 116.235L76.1602 137.722Z" fill="black"/>
<path d="M76.1602 137.722L54.3373 121.866L62.2649 110.955L76.1602 137.722Z" fill="black"/>
<path d="M44.4492 137.72L66.2721 121.864L58.3445 110.953L44.4492 137.72Z" fill="black"/>
<path d="M44.4492 137.72L52.7848 112.065L65.612 116.233L44.4492 137.72Z" fill="black"/>
<path d="M34.6484 107.562L56.4713 123.417L64.3989 112.505L34.6484 107.562Z" fill="black"/>
<path d="M34.6484 107.562H61.623V121.049L34.6484 107.562Z" fill="black"/>
<path d="M60.3047 88.9238L51.9691 114.578L64.7962 118.746L60.3047 88.9238Z" fill="black"/>
<path d="M60.3047 88.9238L68.6403 114.578L55.8131 118.746L60.3047 88.9238Z" fill="black"/>
<path d="M85.959 107.562H58.9845V121.05L85.959 107.562Z" fill="black"/>
<path d="M85.959 107.562L64.1361 123.418L56.2085 112.506L85.959 107.562Z" fill="black"/>
<path d="M103.688 78.4805L125.51 62.6252L117.583 51.7138L103.688 78.4805Z" fill="black"/>
<path d="M103.688 78.4805L112.023 52.8262L124.85 56.994L103.688 78.4805Z" fill="black"/>
<path d="M93.8887 48.3223L115.712 64.1775L123.639 53.2661L93.8887 48.3223Z" fill="black"/>
<path d="M93.8887 48.3223H120.863V61.8095L93.8887 48.3223Z" fill="black"/>
<path d="M119.543 29.6836L111.207 55.3379L124.035 59.5057L119.543 29.6836Z" fill="black"/>
<path d="M119.543 29.6836L127.879 55.3379L115.051 59.5057L119.543 29.6836Z" fill="black"/>
<path d="M145.195 48.3223H118.221V61.8095L145.195 48.3223Z" fill="black"/>
<path d="M145.195 48.3223L123.372 64.1775L115.445 53.2661L145.195 48.3223Z" fill="black"/>
<path d="M135.4 78.4824L127.065 52.8281L114.238 56.9959L135.4 78.4824Z" fill="black"/>
<path d="M135.4 78.4824L113.578 62.6272L121.505 51.7158L135.4 78.4824Z" fill="black"/>
<path d="M200.467 331.694L192.131 357.349L204.958 361.516L200.467 331.694Z" fill="black"/>
<path d="M200.467 331.694L208.802 357.349L195.975 361.516L200.467 331.694Z" fill="black"/>
<path d="M226.119 350.333H199.145V363.82L226.119 350.333Z" fill="black"/>
<path d="M226.119 350.333L204.296 366.188L196.369 355.277L226.119 350.333Z" fill="black"/>
<path d="M216.322 380.493L207.987 354.839L195.16 359.007L216.322 380.493Z" fill="black"/>
<path d="M216.322 380.493L194.499 364.638L202.427 353.727L216.322 380.493Z" fill="black"/>
<path d="M184.613 380.491L206.436 364.636L198.509 353.725L184.613 380.491Z" fill="black"/>
<path d="M184.613 380.491L192.949 354.837L205.776 359.005L184.613 380.491Z" fill="black"/>
<path d="M174.811 350.333L196.633 366.188L204.561 355.277L174.811 350.333Z" fill="black"/>
<path d="M174.811 350.333H201.785V363.82L174.811 350.333Z" fill="black"/>
<path d="M255.736 328.65H282.711V342.138L255.736 328.65Z" fill="black"/>
<path d="M255.736 328.65L277.559 344.506L285.487 333.594L255.736 328.65Z" fill="black"/>
<path d="M265.535 358.808L273.871 333.153L286.698 337.321L265.535 358.808Z" fill="black"/>
<path d="M265.535 358.808L287.358 342.952L279.43 332.041L265.535 358.808Z" fill="black"/>
<path d="M297.244 358.807L275.421 342.951L283.349 332.04L297.244 358.807Z" fill="black"/>
<path d="M297.244 358.807L288.909 333.152L276.081 337.32L297.244 358.807Z" fill="black"/>
<path d="M307.047 328.649L285.224 344.505L277.296 333.593L307.047 328.649Z" fill="black"/>
<path d="M307.047 328.649H280.072V342.137L307.047 328.649Z" fill="black"/>
<path d="M281.389 310.011L289.724 335.665L276.897 339.833L281.389 310.011Z" fill="black"/>
<path d="M281.389 310.011L273.053 335.665L285.88 339.833L281.389 310.011Z" fill="black"/>
<path d="M314.977 269.41H341.951V282.897L314.977 269.41Z" fill="black"/>
<path d="M314.977 269.41L336.799 285.265L344.727 274.354L314.977 269.41Z" fill="black"/>
<path d="M324.775 299.568L333.111 273.914L345.938 278.082L324.775 299.568Z" fill="black"/>
<path d="M324.775 299.568L346.598 283.713L338.671 272.802L324.775 299.568Z" fill="black"/>
<path d="M356.486 299.566L334.663 283.711L342.591 272.8L356.486 299.566Z" fill="black"/>
<path d="M356.486 299.566L348.151 273.912L335.324 278.08L356.486 299.566Z" fill="black"/>
<path d="M366.287 269.409L344.464 285.264L336.537 274.353L366.287 269.409Z" fill="black"/>
<path d="M366.287 269.409H339.313V282.896L366.287 269.409Z" fill="black"/>
<path d="M340.629 250.771L348.964 276.425L336.137 280.593L340.629 250.771Z" fill="black"/>
<path d="M340.629 250.771L332.293 276.425L345.12 280.593L340.629 250.771Z" fill="black"/>
<path d="M38.6191 169.848L46.9547 195.502L34.1276 199.67L38.6191 169.848Z" fill="black"/>
<path d="M38.6191 169.848L30.2836 195.502L43.1107 199.67L38.6191 169.848Z" fill="black"/>
<path d="M12.9648 188.485H39.9394V201.973L12.9648 188.485Z" fill="black"/>
<path d="M12.9648 188.485L34.7877 204.341L42.7153 193.429L12.9648 188.485Z" fill="black"/>
<path d="M22.7637 218.646L31.0993 192.991L43.9264 197.159L22.7637 218.646Z" fill="black"/>
<path d="M22.7637 218.646L44.5865 202.79L36.6589 191.879L22.7637 218.646Z" fill="black"/>
<path d="M54.4727 218.644L32.6498 202.788L40.5774 191.877L54.4727 218.644Z" fill="black"/>
<path d="M54.4727 218.644L46.1371 192.989L33.3099 197.157L54.4727 218.644Z" fill="black"/>
<path d="M64.2734 188.486L42.4506 204.342L34.523 193.43L64.2734 188.486Z" fill="black"/>
<path d="M64.2734 188.486H37.2989V201.974L64.2734 188.486Z" fill="black"/>
<path d="M324.775 137.722L333.111 112.067L345.938 116.235L324.775 137.722Z" fill="black"/>
<path d="M324.775 137.722L346.598 121.866L338.671 110.955L324.775 137.722Z" fill="black"/>
<path d="M356.486 137.72L334.663 121.864L342.591 110.953L356.486 137.72Z" fill="black"/>
<path d="M356.486 137.72L348.151 112.065L335.324 116.233L356.486 137.72Z" fill="black"/>
<path d="M366.287 107.562L344.464 123.417L336.537 112.505L366.287 107.562Z" fill="black"/>
<path d="M366.287 107.562H339.313V121.049L366.287 107.562Z" fill="black"/>
<path d="M340.631 88.9238L348.966 114.578L336.139 118.746L340.631 88.9238Z" fill="black"/>
<path d="M340.631 88.9238L332.295 114.578L345.122 118.746L340.631 88.9238Z" fill="black"/>
<path d="M314.979 107.562H341.953V121.05L314.979 107.562Z" fill="black"/>
<path d="M314.979 107.562L336.801 123.418L344.729 112.506L314.979 107.562Z" fill="black"/>
<path d="M297.244 78.4805L275.421 62.6252L283.349 51.7138L297.244 78.4805Z" fill="black"/>
<path d="M297.244 78.4805L288.909 52.8262L276.081 56.994L297.244 78.4805Z" fill="black"/>
<path d="M307.047 48.3223L285.224 64.1775L277.296 53.2661L307.047 48.3223Z" fill="black"/>
<path d="M307.047 48.3223H280.072V61.8095L307.047 48.3223Z" fill="black"/>
<path d="M281.391 29.6836L289.726 55.3379L276.899 59.5057L281.391 29.6836Z" fill="black"/>
<path d="M281.391 29.6836L273.055 55.3379L285.882 59.5057L281.391 29.6836Z" fill="black"/>
<path d="M255.738 48.3223H282.713V61.8095L255.738 48.3223Z" fill="black"/>
<path d="M255.738 48.3223L277.561 64.1775L285.489 53.2661L255.738 48.3223Z" fill="black"/>
<path d="M265.535 78.4824L273.871 52.8281L286.698 56.9959L265.535 78.4824Z" fill="black"/>
<path d="M265.535 78.4824L287.358 62.6272L279.43 51.7158L265.535 78.4824Z" fill="black"/>
<path d="M252.909 256.777L188.065 172.958L192.073 170.124L186.65 162.333C187.122 146.513 224.142 156.194 235.225 159.499C235.932 159.735 236.168 158.791 235.696 158.555C188.066 122.666 147.508 152.416 147.508 152.416L141.613 164.694L128.644 171.305L124.164 170.596L116.854 176.499C116.147 177.208 115.911 178.152 116.619 179.096L132.653 200.11C133.36 200.818 134.303 201.054 135.246 200.346L142.32 194.915C142.556 184.291 162.363 177.444 162.363 177.444L168.729 186.652L173.681 183.111L230.036 272.833C231.215 274.722 233.573 275.194 235.224 274.013L251.966 262.208C253.852 260.791 254.324 258.43 252.909 256.777Z" fill="black"/>
</g>
<defs>
<clipPath id="clip0_498_2">
<rect width="400" height="400" fill="white"/>
</clipPath>
</defs>
</svg>
